<?xml version="1.0" standalone="no"?>
<!DOCTYPE svg PUBLIC "-//W3C//DTD SVG 20010904//EN"
 "http://www.w3.org/TR/2001/REC-SVG-20010904/DTD/svg10.dtd">
<svg version="1.0" xmlns="http://www.w3.org/2000/svg"
 width="512.000000pt" height="512.000000pt" viewBox="0 0 512.000000 512.000000"
 preserveAspectRatio="xMidYMid meet">
<metadata>
Created by potrace 1.11, written by Peter Selinger 2001-2013
</metadata>
<g transform="translate(0.000000,512.000000) scale(0.100000,-0.100000)"
fill="#000000" stroke="none">
<path d="M2335 5104 c-16 -2 -80 -11 -142 -20 -428 -58 -880 -256 -1233 -541
-102 -82 -284 -262 -361 -358 -299 -371 -475 -767 -556 -1250 -26 -156 -26
-590 0 -753 111 -694 464 -1280 1022 -1692 324 -240 718 -402 1135 -467 164
-26 589 -25 745 0 298 50 541 128 792 257 65 33 127 66 138 73 174 111 253
167 360 256 16 14 89 84 160 156 298 298 517 670 634 1076 27 91 40 150 76
329 4 19 10 171 12 336 6 377 -10 506 -99 799 -88 292 -252 603 -448 850 -81
103 -292 313 -395 395 -352 279 -755 456 -1225 536 -91 15 -539 29 -615 18z
m500 -322 c33 -6 74 -13 90 -15 360 -53 768 -240 1060 -487 699 -588 971
-1525 696 -2395 -132 -416 -384 -784 -727 -1061 -309 -248 -702 -419 -1084
-470 -19 -2 -64 -8 -100 -13 -65 -9 -403 -7 -450 3 -14 2 -43 7 -65 10 -349
45 -717 195 -1010 409 -38 28 -72 54 -75 57 -3 3 -34 30 -70 60 -376 320 -643
792 -735 1303 -46 252 -42 559 10 816 141 692 583 1266 1210 1571 248 121 506
195 760 217 39 3 72 7 74 9 8 7 362 -5 416 -14z"/>
<path d="M2721 3203 c0 -1184 3 -1406 15 -1452 53 -200 230 -349 435 -367 l69
-7 0 1400 c0 1375 0 1401 -20 1458 -27 77 -58 130 -113 188 -73 76 -210 149
-305 162 -21 3 -47 8 -60 10 l-22 5 1 -1397z"/>
<path d="M1030 3076 c0 -759 0 -775 21 -842 24 -79 63 -139 131 -205 77 -74
226 -143 332 -153 l36 -4 -2 812 -3 811 -35 65 c-81 149 -255 263 -437 285
l-43 5 0 -774z"/>
<path d="M1890 2432 c0 -1374 0 -1400 20 -1457 34 -99 93 -180 178 -247 61
-48 196 -102 285 -112 l37 -5 -2 1427 -3 1427 -32 65 c-76 153 -245 268 -435
295 l-48 6 0 -1399z"/>
<path d="M3580 2540 l0 -801 35 -73 c75 -158 245 -273 443 -301 l43 -6 -3 798
c-4 770 -4 800 -23 843 -80 181 -240 298 -457 335 l-38 6 0 -801z"/>
</g>
</svg>
